<?xml version="1.0" encoding="UTF-8"?>
<!DOCTYPE svg PUBLIC "-//W3C//DTD SVG 1.1//EN" "http://www.w3.org/Graphics/SVG/1.1/DTD/svg11.dtd">
<svg xmlns="http://www.w3.org/2000/svg" version="1.1" width="768px" height="299px" style="shape-rendering:geometricPrecision; text-rendering:geometricPrecision; image-rendering:optimizeQuality; fill-rule:evenodd; clip-rule:evenodd" xmlns:xlink="http://www.w3.org/1999/xlink">
<g><path style="opacity:0.946" fill="#fdfdfd" d="M 207.5,51.5 C 205.553,54.9234 204.053,58.5901 203,62.5C 195.001,95.8308 187.001,129.164 179,162.5C 168.834,163.178 158.667,163.845 148.5,164.5C 147.167,164.5 145.833,164.5 144.5,164.5C 147.027,149.19 150.694,134.19 155.5,119.5C 155.291,118.914 154.957,118.414 154.5,118C 157.028,110.831 158.694,103.664 159.5,96.5C 163.947,80.3502 168.28,64.3502 172.5,48.5C 184.148,47.5011 195.814,47.1678 207.5,47.5C 207.5,48.8333 207.5,50.1667 207.5,51.5 Z"/></g>
<g><path style="opacity:0.945" fill="#fdfdfd" d="M 153.5,55.5 C 151.864,56.7489 150.697,58.4156 150,60.5C 148.56,67.8652 147.06,75.1985 145.5,82.5C 130.167,82.5 114.833,82.5 99.5,82.5C 99.1489,85.9032 98.4822,89.2365 97.5,92.5C 96.5489,93.9187 96.2155,95.5853 96.5,97.5C 99.0593,97.8016 101.393,97.4682 103.5,96.5C 104.167,96.5 104.833,96.5 105.5,96.5C 116.838,96.3335 128.172,96.5001 139.5,97C 138.663,98.0113 138.33,99.1779 138.5,100.5C 135.258,108.117 132.925,116.117 131.5,124.5C 117.516,125.499 103.516,125.833 89.5,125.5C 86.2859,138.119 83.2859,150.786 80.5,163.5C 69.7819,163.213 59.1152,163.546 48.5,164.5C 46.8967,164.688 45.5634,164.188 44.5,163C 53.8255,125.989 62.9922,89.1558 72,52.5C 72.5,52 73,51.5 73.5,51C 99.8333,50.3333 126.167,50.3333 152.5,51C 153.38,52.3561 153.714,53.8561 153.5,55.5 Z"/></g>
<g><path style="opacity:0.953" fill="#fcfcfc" d="M 464.5,58.5 C 461.607,64.0607 459.941,70.0607 459.5,76.5C 462.279,76.7214 464.946,76.388 467.5,75.5C 470.5,75.5 473.5,75.5 476.5,75.5C 476.371,77.2161 476.038,78.8828 475.5,80.5C 472.481,87.7314 470.147,95.2314 468.5,103C 462.843,103.499 457.176,103.666 451.5,103.5C 449.677,112.46 448.011,121.46 446.5,130.5C 445.748,135.906 448.082,137.906 453.5,136.5C 455.707,135.261 458.041,134.761 460.5,135C 460.47,136.429 460.803,137.929 461.5,139.5C 460.21,140.058 459.377,141.058 459,142.5C 457.564,148.515 456.064,154.515 454.5,160.5C 454.182,161.647 453.516,162.481 452.5,163C 438.639,167.568 425.639,166.068 413.5,158.5C 412.266,156.34 410.933,154.173 409.5,152C 409.833,151.667 410.167,151.333 410.5,151C 409.707,149.915 409.04,148.748 408.5,147.5C 409.833,145.167 409.833,142.833 408.5,140.5C 410.439,138.878 410.772,137.044 409.5,135C 411.525,133.806 411.859,132.306 410.5,130.5C 412.588,123.974 414.254,117.64 415.5,111.5C 416.942,109.46 417.942,107.127 418.5,104.5C 416.701,103.212 415.035,103.212 413.5,104.5C 412.504,104.586 411.671,104.252 411,103.5C 409.123,101.209 409.29,99.2088 411.5,97.5C 411.291,96.914 410.957,96.414 410.5,96C 411.977,90.7911 413.644,85.6244 415.5,80.5C 414.529,79.0379 414.862,77.7046 416.5,76.5C 419.167,75.8333 421.833,75.1667 424.5,74.5C 426.514,67.6657 428.181,60.999 429.5,54.5C 441.167,54.5 452.833,54.5 464.5,54.5C 464.5,55.8333 464.5,57.1667 464.5,58.5 Z"/></g>
<g><path style="opacity:0.36" fill="#040404" d="M 153.5,55.5 C 156.864,54.8728 158.864,56.2061 159.5,59.5C 157.503,70.3263 154.503,80.8263 150.5,91C 135.822,91.1672 121.155,91.6672 106.5,92.5C 105.754,93.7362 105.421,95.0695 105.5,96.5C 104.833,96.5 104.167,96.5 103.5,96.5C 101.5,96.5 99.5,96.5 97.5,96.5C 97.5,95.1667 97.5,93.8333 97.5,92.5C 98.4822,89.2365 99.1489,85.9032 99.5,82.5C 114.833,82.5 130.167,82.5 145.5,82.5C 147.06,75.1985 148.56,67.8652 150,60.5C 150.697,58.4156 151.864,56.7489 153.5,55.5 Z"/></g>
<g><path style="opacity:0.325" fill="#070707" d="M 464.5,58.5 C 466.5,58.8333 468.5,59.1667 470.5,59.5C 470.447,65.038 469.447,70.3713 467.5,75.5C 464.946,76.388 462.279,76.7214 459.5,76.5C 459.941,70.0607 461.607,64.0607 464.5,58.5 Z"/></g>
<g><path style="opacity:0.956" fill="#fdfdfd" d="M 389.5,86.5 C 390.167,88.5 390.833,90.5 391.5,92.5C 392.786,100.162 392.786,107.828 391.5,115.5C 388.44,130.674 384.773,145.674 380.5,160.5C 375.076,161.786 369.41,162.452 363.5,162.5C 357.789,162.495 352.456,161.828 347.5,160.5C 347.719,159.325 347.386,158.325 346.5,157.5C 334.646,167.751 322.646,168.085 310.5,158.5C 307.079,153.101 305.412,147.101 305.5,140.5C 305.5,140.167 305.5,139.833 305.5,139.5C 306.268,137.285 306.935,134.952 307.5,132.5C 308.612,130.401 309.279,128.067 309.5,125.5C 314.079,117.875 320.745,113.209 329.5,111.5C 335.479,110.669 341.479,110.003 347.5,109.5C 350.627,110.581 353.96,111.247 357.5,111.5C 357.5,111.167 357.5,110.833 357.5,110.5C 359.377,109.341 359.877,107.674 359,105.5C 357.048,103.106 354.548,101.606 351.5,101C 344.414,100.594 337.414,101.26 330.5,103C 329.619,103.708 328.953,104.542 328.5,105.5C 327.504,105.586 326.671,105.252 326,104.5C 325.119,100.496 324.286,96.4963 323.5,92.5C 324.668,91.0944 324.335,89.9277 322.5,89C 323.051,87.6015 323.384,86.2682 323.5,85C 322.833,84.3333 322.167,83.6667 321.5,83C 322.38,81.6439 322.714,80.1439 322.5,78.5C 335.897,74.893 349.397,73.2263 363,73.5C 373.553,74.5271 382.386,78.8604 389.5,86.5 Z M 347.5,109.5 C 351.042,109.187 354.375,109.521 357.5,110.5C 357.5,110.833 357.5,111.167 357.5,111.5C 353.96,111.247 350.627,110.581 347.5,109.5 Z M 352.5,135.5 C 351.345,139.332 349.012,142.332 345.5,144.5C 345.989,140.016 348.323,137.016 352.5,135.5 Z"/></g>
<g><path style="opacity:0.963" fill="#fcfcfc" d="M 556.5,85.5 C 557.833,88.8333 559.167,92.1667 560.5,95.5C 561.371,103.8 561.705,112.133 561.5,120.5C 561.38,123.48 560.713,126.313 559.5,129C 543.503,129.5 527.503,129.667 511.5,129.5C 511.406,135.068 514.073,138.068 519.5,138.5C 522.167,139.833 524.833,139.833 527.5,138.5C 531.682,137.744 535.682,136.41 539.5,134.5C 541.205,135.545 542.705,136.878 544,138.5C 545.497,142.165 547.497,145.498 550,148.5C 551.301,150.402 551.968,152.402 552,154.5C 535.076,166.402 516.91,168.568 497.5,161C 492.66,157.941 488.327,154.441 484.5,150.5C 482.003,144.75 480.003,139.083 478.5,133.5C 478.121,113.853 485.121,97.0192 499.5,83C 514.495,72.8838 530.162,70.8838 546.5,77C 550.462,79.1399 553.796,81.9733 556.5,85.5 Z M 532.5,108.5 C 532.586,109.496 532.252,110.329 531.5,111C 529.527,111.495 527.527,111.662 525.5,111.5C 527.036,108.908 529.369,107.908 532.5,108.5 Z"/></g>
<g><path style="opacity:0.945" fill="#fdfdfd" d="M 648.5,78.5 C 647.542,78.9528 646.708,79.6195 646,80.5C 643.18,91.119 640.68,101.786 638.5,112.5C 621.198,111.793 611.531,120.126 609.5,137.5C 608.076,139.515 607.41,141.848 607.5,144.5C 606.01,150.794 604.677,157.127 603.5,163.5C 593.085,163.192 582.751,163.525 572.5,164.5C 570.654,164.778 569.32,164.111 568.5,162.5C 575.925,133.956 583.092,105.289 590,76.5C 601.419,75.5122 612.919,75.1789 624.5,75.5C 624.5,77.1667 624.5,78.8333 624.5,80.5C 622.586,83.1512 621.753,86.1512 622,89.5C 624.385,86.6215 626.552,83.6215 628.5,80.5C 633.926,75.9407 640.092,73.9407 647,74.5C 647.41,75.9007 647.91,77.234 648.5,78.5 Z"/></g>
<g><path style="opacity:0.948" fill="#fcfcfc" d="M 730.5,86.5 C 724.448,92.9307 719.114,99.9307 714.5,107.5C 707.061,101.768 698.728,98.9347 689.5,99C 688.167,100.667 688.167,102.333 689.5,104C 692.632,105.782 695.965,106.948 699.5,107.5C 700.209,108.404 701.209,108.737 702.5,108.5C 704.428,110.474 706.761,111.974 709.5,113C 711.82,114.966 713.82,117.133 715.5,119.5C 715.893,121.284 716.559,122.95 717.5,124.5C 718.275,129.797 718.608,135.13 718.5,140.5C 715.788,153.047 708.121,160.88 695.5,164C 686.506,165.959 677.506,165.959 668.5,164C 660.34,162.243 652.674,159.409 645.5,155.5C 644.172,154.493 643.172,153.16 642.5,151.5C 646.784,143.572 651.784,136.239 657.5,129.5C 663.129,132.65 668.796,135.817 674.5,139C 676.134,139.494 677.801,139.66 679.5,139.5C 682.096,140.265 684.763,140.599 687.5,140.5C 687.714,138.856 687.38,137.356 686.5,136C 677.342,131.59 668.675,126.424 660.5,120.5C 651.093,100.749 656.426,85.9152 676.5,76C 692.795,71.6933 708.795,73.36 724.5,81C 726.996,82.331 728.996,84.1644 730.5,86.5 Z"/></g>
<g><path style="opacity:0.354" fill="#050505" d="M 648.5,78.5 C 651.201,78.6591 653.201,79.8258 654.5,82C 651.569,94.5588 648.402,107.059 645,119.5C 629.865,119.288 620.532,126.622 617,141.5C 614.824,151.203 612.491,160.87 610,170.5C 608.933,171.191 607.766,171.691 606.5,172C 595.133,172.767 583.8,172.601 572.5,171.5C 572.5,169.167 572.5,166.833 572.5,164.5C 582.751,163.525 593.085,163.192 603.5,163.5C 604.677,157.127 606.01,150.794 607.5,144.5C 608.924,142.485 609.59,140.152 609.5,137.5C 611.531,120.126 621.198,111.793 638.5,112.5C 640.68,101.786 643.18,91.119 646,80.5C 646.708,79.6195 647.542,78.9528 648.5,78.5 Z"/></g>
<g><path style="opacity:0.36" fill="#040404" d="M 475.5,80.5 C 477.527,80.3379 479.527,80.5045 481.5,81C 482.059,81.7247 482.392,82.5581 482.5,83.5C 480.203,92.8698 477.536,102.036 474.5,111C 469.177,111.499 463.844,111.666 458.5,111.5C 456.674,119.804 455.007,128.137 453.5,136.5C 448.082,137.906 445.748,135.906 446.5,130.5C 448.011,121.46 449.677,112.46 451.5,103.5C 457.176,103.666 462.843,103.499 468.5,103C 470.147,95.2314 472.481,87.7314 475.5,80.5 Z"/></g>
<g><path style="opacity:0.316" fill="#171717" d="M 624.5,80.5 C 625.833,80.5 627.167,80.5 628.5,80.5C 626.552,83.6215 624.385,86.6215 622,89.5C 621.753,86.1512 622.586,83.1512 624.5,80.5 Z"/></g>
<g><path style="opacity:0.351" fill="#070707" d="M 730.5,86.5 C 732.392,87.7017 734.226,89.035 736,90.5C 736.667,91.5 736.667,92.5 736,93.5C 731.224,101.275 726.057,108.775 720.5,116C 717.906,116.449 715.906,115.449 714.5,113C 710.578,111.202 706.578,109.702 702.5,108.5C 701.791,107.596 700.791,107.263 699.5,107.5C 695.965,106.948 692.632,105.782 689.5,104C 688.167,102.333 688.167,100.667 689.5,99C 698.728,98.9347 707.061,101.768 714.5,107.5C 719.114,99.9307 724.448,92.9307 730.5,86.5 Z"/></g>
<g><path style="opacity:0.336" fill="#050505" d="M 389.5,86.5 C 393.883,89.3991 397.049,93.3991 399,98.5C 400.919,106.477 400.919,114.477 399,122.5C 395.061,138.756 390.894,154.923 386.5,171C 375.239,172.6 363.906,172.933 352.5,172C 350.579,171.64 348.912,170.806 347.5,169.5C 337.047,176.308 326.714,176.142 316.5,169C 313.591,166.015 311.591,162.515 310.5,158.5C 322.646,168.085 334.646,167.751 346.5,157.5C 347.386,158.325 347.719,159.325 347.5,160.5C 346.596,161.209 346.263,162.209 346.5,163.5C 357.833,163.5 369.167,163.5 380.5,163.5C 380.5,162.5 380.5,161.5 380.5,160.5C 384.773,145.674 388.44,130.674 391.5,115.5C 392.997,111.777 393.663,107.777 393.5,103.5C 393.706,99.5313 393.039,95.8646 391.5,92.5C 390.833,90.5 390.167,88.5 389.5,86.5 Z"/></g>
<g><path style="opacity:0.336" fill="#070707" d="M 556.5,85.5 C 565.872,93.4215 570.205,103.588 569.5,116C 569.882,123.424 568.715,130.591 566,137.5C 559.888,138.148 553.721,138.815 547.5,139.5C 551.532,145.702 555.365,152.035 559,158.5C 559.624,160.464 559.124,162.131 557.5,163.5C 536.743,177.446 515.743,177.946 494.5,165C 490.293,160.747 486.96,155.913 484.5,150.5C 488.327,154.441 492.66,157.941 497.5,161C 516.91,168.568 535.076,166.402 552,154.5C 551.968,152.402 551.301,150.402 550,148.5C 547.497,145.498 545.497,142.165 544,138.5C 542.705,136.878 541.205,135.545 539.5,134.5C 535.682,136.41 531.682,137.744 527.5,138.5C 524.833,138.5 522.167,138.5 519.5,138.5C 514.073,138.068 511.406,135.068 511.5,129.5C 527.503,129.667 543.503,129.5 559.5,129C 560.713,126.313 561.38,123.48 561.5,120.5C 562.655,113.345 562.822,106.012 562,98.5C 561.768,97.2625 561.268,96.2625 560.5,95.5C 559.167,92.1667 557.833,88.8333 556.5,85.5 Z"/></g>
<g><path style="opacity:0.685" fill="#959595" d="M 97.5,92.5 C 97.5,93.8333 97.5,95.1667 97.5,96.5C 99.5,96.5 101.5,96.5 103.5,96.5C 101.393,97.4682 99.0593,97.8016 96.5,97.5C 96.2155,95.5853 96.5489,93.9187 97.5,92.5 Z"/></g>
<g><path style="opacity:0.348" fill="#030303" d="M 138.5,100.5 C 141.596,99.9066 143.929,100.907 145.5,103.5C 142.906,113.378 140.239,123.211 137.5,133C 123.598,134.465 109.598,134.965 95.5,134.5C 93.451,146.914 90.451,159.081 86.5,171C 73.8714,172.832 61.2047,172.999 48.5,171.5C 48.5,169.167 48.5,166.833 48.5,164.5C 59.1152,163.546 69.7819,163.213 80.5,163.5C 83.2859,150.786 86.2859,138.119 89.5,125.5C 103.516,125.833 117.516,125.499 131.5,124.5C 132.925,116.117 135.258,108.117 138.5,100.5 Z"/></g>
<g><path style="opacity:0.759" fill="#a0a0a0" d="M 391.5,92.5 C 393.039,95.8646 393.706,99.5313 393.5,103.5C 393.663,107.777 392.997,111.777 391.5,115.5C 392.786,107.828 392.786,100.162 391.5,92.5 Z"/></g>
<g><path style="opacity:0.417" fill="#0b0b0b" d="M 532.5,108.5 C 529.369,107.908 527.036,108.908 525.5,111.5C 521.554,112.527 517.554,112.694 513.5,112C 514.81,106.705 517.81,102.705 522.5,100C 529.631,98.396 532.964,101.229 532.5,108.5 Z"/></g>
<g><path style="opacity:0.386" fill="#0a0a0a" d="M 357.5,110.5 C 354.375,109.521 351.042,109.187 347.5,109.5C 341.479,110.003 335.479,110.669 329.5,111.5C 328.85,109.565 328.517,107.565 328.5,105.5C 328.953,104.542 329.619,103.708 330.5,103C 337.414,101.26 344.414,100.594 351.5,101C 354.548,101.606 357.048,103.106 359,105.5C 359.877,107.674 359.377,109.341 357.5,110.5 Z"/></g>
<g><path style="opacity:0.196" fill="#0b0b0b" d="M 415.5,111.5 C 412.263,110.003 411.597,107.67 413.5,104.5C 415.035,103.212 416.701,103.212 418.5,104.5C 417.942,107.127 416.942,109.46 415.5,111.5 Z"/></g>
<g><path style="opacity:0.863" fill="#a4a4a4" d="M 560.5,95.5 C 561.268,96.2625 561.768,97.2625 562,98.5C 562.822,106.012 562.655,113.345 561.5,120.5C 561.705,112.133 561.371,103.8 560.5,95.5 Z"/></g>
<g><path style="opacity:0.342" fill="#040404" d="M 715.5,119.5 C 720.943,123.025 724.443,128.025 726,134.5C 727.292,157.548 716.459,170.715 693.5,174C 678.43,175.066 664.43,171.732 651.5,164C 647.677,162.359 645.677,159.526 645.5,155.5C 652.674,159.409 660.34,162.243 668.5,164C 677.506,165.959 686.506,165.959 695.5,164C 708.121,160.88 715.788,153.047 718.5,140.5C 719.163,138.527 719.496,136.361 719.5,134C 719.672,130.523 719.006,127.356 717.5,124.5C 716.559,122.95 715.893,121.284 715.5,119.5 Z"/></g>
<g><path style="opacity:0.262" fill="#0a0a0a" d="M 660.5,120.5 C 668.675,126.424 677.342,131.59 686.5,136C 687.38,137.356 687.714,138.856 687.5,140.5C 684.763,140.599 682.096,140.265 679.5,139.5C 673.071,136.513 667.571,132.18 663,126.5C 661.878,124.593 661.045,122.593 660.5,120.5 Z"/></g>
<g><path style="opacity:0.6" fill="#6e6e6e" d="M 353.5,127.5 C 350.098,127.342 346.764,127.676 343.5,128.5C 343.611,127.883 343.944,127.383 344.5,127C 347.696,126.195 350.696,126.362 353.5,127.5 Z"/></g>
<g><path style="opacity:0.41" fill="#080808" d="M 353.5,127.5 C 354.586,127.62 355.253,128.287 355.5,129.5C 354.999,131.836 353.999,133.836 352.5,135.5C 348.323,137.016 345.989,140.016 345.5,144.5C 340.49,145.326 338.157,143.159 338.5,138C 338.765,133.997 340.432,130.83 343.5,128.5C 346.764,127.676 350.098,127.342 353.5,127.5 Z"/></g>
<g><path style="opacity:0.655" fill="#878787" d="M 717.5,124.5 C 719.006,127.356 719.672,130.523 719.5,134C 719.496,136.361 719.163,138.527 718.5,140.5C 718.608,135.13 718.275,129.797 717.5,124.5 Z"/></g>
<g><path style="opacity:0.335" fill="#040404" d="M 461.5,139.5 C 463.199,139.34 464.866,139.506 466.5,140C 467.081,140.893 467.415,141.893 467.5,143C 466.001,149.48 464.501,155.98 463,162.5C 462.22,165.512 461.053,168.345 459.5,171C 446.186,176.097 433.186,175.43 420.5,169C 416.781,166.388 414.448,162.888 413.5,158.5C 425.639,166.068 438.639,167.568 452.5,163C 453.516,162.481 454.182,161.647 454.5,160.5C 456.064,154.515 457.564,148.515 459,142.5C 459.377,141.058 460.21,140.058 461.5,139.5 Z"/></g>
<g><path style="opacity:0.729" fill="#848484" d="M 609.5,137.5 C 609.59,140.152 608.924,142.485 607.5,144.5C 607.41,141.848 608.076,139.515 609.5,137.5 Z"/></g>
<g><path style="opacity:0.602" fill="#060303" d="M 207.5,51.5 C 211.176,51.3192 213.176,52.9858 213.5,56.5C 210.738,66.4061 208.405,76.4061 206.5,86.5C 207.833,86.5 209.167,86.5 210.5,86.5C 210.5,84.8333 210.5,83.1667 210.5,81.5C 212.59,81.5499 213.923,80.5499 214.5,78.5C 217.086,77.52 219.753,77.1866 222.5,77.5C 222.5,76.1667 222.5,74.8333 222.5,73.5C 225.167,73.5 227.833,73.5 230.5,73.5C 230.33,72.1779 230.663,71.0113 231.5,70C 245.167,69.3333 258.833,69.3333 272.5,70C 273.337,71.0113 273.67,72.1779 273.5,73.5C 275.833,73.5 278.167,73.5 280.5,73.5C 280.5,74.8333 280.5,76.1667 280.5,77.5C 283.5,77.5 286.5,77.5 289.5,77.5C 289.5,78.8333 289.5,80.1667 289.5,81.5C 290.833,81.5 292.167,81.5 293.5,81.5C 293.5,83.1667 293.5,84.8333 293.5,86.5C 294.873,86.3433 296.207,86.51 297.5,87C 298.833,88 298.833,89 297.5,90C 298.793,90.49 300.127,90.6567 301.5,90.5C 301.337,92.8568 301.503,95.1902 302,97.5C 303.011,98.3366 304.178,98.67 305.5,98.5C 305.5,100.833 305.5,103.167 305.5,105.5C 306.822,105.33 307.989,105.663 309,106.5C 309.5,112.825 309.666,119.158 309.5,125.5C 309.279,128.067 308.612,130.401 307.5,132.5C 305.656,134.279 304.99,136.612 305.5,139.5C 305.5,139.833 305.5,140.167 305.5,140.5C 304.292,141.234 302.959,141.567 301.5,141.5C 301.5,143.833 301.5,146.167 301.5,148.5C 300.127,148.343 298.793,148.51 297.5,149C 298.641,149.741 298.641,150.575 297.5,151.5C 296.311,152.429 294.978,152.762 293.5,152.5C 294.244,155.95 292.91,157.616 289.5,157.5C 289.5,158.5 289.5,159.5 289.5,160.5C 287.345,160.372 285.345,160.872 283.5,162C 276.13,168.683 267.463,172.683 257.5,174C 265.827,174.5 274.16,174.666 282.5,174.5C 282.5,176.167 282.5,177.833 282.5,179.5C 285.5,179.5 288.5,179.5 291.5,179.5C 291.5,181.167 291.5,182.833 291.5,184.5C 288.167,184.5 284.833,184.5 281.5,184.5C 281.5,183.167 281.5,181.833 281.5,180.5C 280.167,180.5 278.833,180.5 277.5,180.5C 277.167,180.5 276.833,180.5 276.5,180.5C 275.167,180.5 273.833,180.5 272.5,180.5C 258.833,180.5 245.167,180.5 231.5,180.5C 230.167,180.5 228.833,180.5 227.5,180.5C 226.167,180.5 224.833,180.5 223.5,180.5C 221.833,180.5 220.167,180.5 218.5,180.5C 218.5,181.833 218.5,183.167 218.5,184.5C 213.833,184.5 209.167,184.5 204.5,184.5C 204.5,185.833 204.5,187.167 204.5,188.5C 201.5,188.5 198.5,188.5 195.5,188.5C 195.5,187.167 195.5,185.833 195.5,184.5C 198.167,184.5 200.833,184.5 203.5,184.5C 203.5,182.833 203.5,181.167 203.5,179.5C 208.167,179.5 212.833,179.5 217.5,179.5C 217.5,177.833 217.5,176.167 217.5,174.5C 226.839,174.666 236.173,174.5 245.5,174C 235.144,172.891 226.477,168.558 219.5,161C 215.944,160.869 212.944,159.702 210.5,157.5C 210.5,155.833 210.5,154.167 210.5,152.5C 209.167,152.5 207.833,152.5 206.5,152.5C 206.5,151.167 206.5,149.833 206.5,148.5C 204.571,148.769 202.905,148.269 201.5,147C 202.406,145.301 202.739,143.467 202.5,141.5C 201.07,141.579 199.736,141.246 198.5,140.5C 197.52,137.914 197.187,135.247 197.5,132.5C 196.5,132.5 195.5,132.5 194.5,132.5C 192.132,145.307 189.132,157.974 185.5,170.5C 184.624,171.251 183.624,171.751 182.5,172C 170.8,172.769 159.133,172.603 147.5,171.5C 147.298,169.05 147.631,166.717 148.5,164.5C 158.667,163.845 168.834,163.178 179,162.5C 187.001,129.164 195.001,95.8308 203,62.5C 204.053,58.5901 205.553,54.9234 207.5,51.5 Z"/></g>
<g><path style="opacity:1" fill="#bf4f2d" d="M 203.5,135.5 C 208.833,135.5 214.167,135.5 219.5,135.5C 219.5,136.833 219.5,138.167 219.5,139.5C 220.833,139.5 222.167,139.5 223.5,139.5C 223.5,142.167 223.5,144.833 223.5,147.5C 218.167,147.5 212.833,147.5 207.5,147.5C 207.5,144.833 207.5,142.167 207.5,139.5C 206.167,139.5 204.833,139.5 203.5,139.5C 203.5,138.167 203.5,136.833 203.5,135.5 Z"/></g>
<g><path style="opacity:1" fill="#f8ac24" d="M 219.5,131.5 C 220.833,131.5 222.167,131.5 223.5,131.5C 223.5,134.167 223.5,136.833 223.5,139.5C 222.167,139.5 220.833,139.5 219.5,139.5C 219.5,138.167 219.5,136.833 219.5,135.5C 219.5,134.167 219.5,132.833 219.5,131.5 Z"/></g>
<g><path style="opacity:1" fill="#7e2827" d="M 203.5,131.5 C 207.5,131.5 211.5,131.5 215.5,131.5C 216.833,131.5 218.167,131.5 219.5,131.5C 219.5,132.833 219.5,134.167 219.5,135.5C 214.167,135.5 208.833,135.5 203.5,135.5C 203.5,134.167 203.5,132.833 203.5,131.5 Z"/></g>
<g><path style="opacity:1" fill="#c04f2e" d="M 199.5,119.5 C 204.833,119.5 210.167,119.5 215.5,119.5C 215.5,122.167 215.5,124.833 215.5,127.5C 215.5,128.833 215.5,130.167 215.5,131.5C 211.5,131.5 207.5,131.5 203.5,131.5C 202.167,131.5 200.833,131.5 199.5,131.5C 199.5,127.5 199.5,123.5 199.5,119.5 Z"/></g>
<g><path style="opacity:0.999" fill="#4e2012" d="M 199.5,107.5 C 199.5,108.833 199.5,110.167 199.5,111.5C 199.5,114.167 199.5,116.833 199.5,119.5C 199.5,123.5 199.5,127.5 199.5,131.5C 200.833,131.5 202.167,131.5 203.5,131.5C 203.5,132.833 203.5,134.167 203.5,135.5C 203.5,136.833 203.5,138.167 203.5,139.5C 202.532,137.393 202.198,135.059 202.5,132.5C 201.167,132.5 199.833,132.5 198.5,132.5C 198.174,123.983 198.507,115.65 199.5,107.5 Z"/></g>
<g><path style="opacity:1" fill="#fdda5c" d="M 215.5,115.5 C 216.833,115.5 218.167,115.5 219.5,115.5C 219.5,119.5 219.5,123.5 219.5,127.5C 218.167,127.5 216.833,127.5 215.5,127.5C 215.5,124.833 215.5,122.167 215.5,119.5C 215.5,118.167 215.5,116.833 215.5,115.5 Z"/></g>
<g><path style="opacity:1" fill="#f96f2b" d="M 199.5,111.5 C 204.833,111.5 210.167,111.5 215.5,111.5C 215.5,112.833 215.5,114.167 215.5,115.5C 215.5,116.833 215.5,118.167 215.5,119.5C 210.167,119.5 204.833,119.5 199.5,119.5C 199.5,116.833 199.5,114.167 199.5,111.5 Z"/></g>
<g><path style="opacity:0.999" fill="#b56c1b" d="M 303.5,107.5 C 304.492,115.316 304.826,123.316 304.5,131.5C 303.167,131.5 301.833,131.5 300.5,131.5C 301.209,130.596 302.209,130.263 303.5,130.5C 303.5,122.833 303.5,115.167 303.5,107.5 Z"/></g>
<g><path style="opacity:1" fill="#fef5ec" d="M 219.5,107.5 C 219.5,110.167 219.5,112.833 219.5,115.5C 218.167,115.5 216.833,115.5 215.5,115.5C 215.5,114.167 215.5,112.833 215.5,111.5C 215.5,110.167 215.5,108.833 215.5,107.5C 216.833,107.5 218.167,107.5 219.5,107.5 Z"/></g>
<g><path style="opacity:1" fill="#fbeade" d="M 223.5,98.5 C 223.5,98.8333 223.5,99.1667 223.5,99.5C 223.5,102.167 223.5,104.833 223.5,107.5C 222.167,107.5 220.833,107.5 219.5,107.5C 219.5,104.5 219.5,101.5 219.5,98.5C 220.833,98.5 222.167,98.5 223.5,98.5 Z"/></g>
<g><path style="opacity:1" fill="#fba924" d="M 292.5,91.5 C 293.5,91.5 294.5,91.5 295.5,91.5C 295.232,93.099 295.566,94.4324 296.5,95.5C 296.5,96.8333 296.5,98.1667 296.5,99.5C 296.5,100.833 296.5,102.167 296.5,103.5C 293.5,103.5 290.5,103.5 287.5,103.5C 287.5,102.167 287.5,100.833 287.5,99.5C 289.167,99.5 290.833,99.5 292.5,99.5C 292.5,96.8333 292.5,94.1667 292.5,91.5 Z"/></g>
<g><path style="opacity:0.998" fill="#b47420" d="M 288.5,86.5 C 289.833,86.5 291.167,86.5 292.5,86.5C 292.5,87.8333 292.5,89.1667 292.5,90.5C 293.833,90.5 295.167,90.5 296.5,90.5C 296.5,92.1667 296.5,93.8333 296.5,95.5C 295.566,94.4324 295.232,93.099 295.5,91.5C 294.5,91.5 293.5,91.5 292.5,91.5C 291.167,91.5 289.833,91.5 288.5,91.5C 288.5,91.1667 288.5,90.8333 288.5,90.5C 289.5,90.5 290.5,90.5 291.5,90.5C 291.5,89.5 291.5,88.5 291.5,87.5C 290.209,87.7373 289.209,87.404 288.5,86.5 Z"/></g>
<g><path style="opacity:1" fill="#ffda5a" d="M 288.5,91.5 C 289.833,91.5 291.167,91.5 292.5,91.5C 292.5,94.1667 292.5,96.8333 292.5,99.5C 290.833,99.5 289.167,99.5 287.5,99.5C 286.5,99.5 285.5,99.5 284.5,99.5C 284.5,96.8333 284.5,94.1667 284.5,91.5C 285.833,91.5 287.167,91.5 288.5,91.5 Z"/></g>
<g><path style="opacity:1" fill="#fbd458" d="M 227.5,91.5 C 227.5,94.1667 227.5,96.8333 227.5,99.5C 226.167,99.5 224.833,99.5 223.5,99.5C 223.5,99.1667 223.5,98.8333 223.5,98.5C 223.5,96.1667 223.5,93.8333 223.5,91.5C 224.833,91.5 226.167,91.5 227.5,91.5 Z"/></g>
<g><path style="opacity:0.999" fill="#441a12" d="M 223.5,82.5 C 223.5,82.8333 223.5,83.1667 223.5,83.5C 220.833,83.5 218.167,83.5 215.5,83.5C 215.5,84.8333 215.5,86.1667 215.5,87.5C 214.167,87.5 212.833,87.5 211.5,87.5C 211.5,88.5 211.5,89.5 211.5,90.5C 210.432,91.4345 209.099,91.7678 207.5,91.5C 207.5,94.1667 207.5,96.8333 207.5,99.5C 206.167,99.5 204.833,99.5 203.5,99.5C 204.209,98.596 205.209,98.2627 206.5,98.5C 206.5,95.8333 206.5,93.1667 206.5,90.5C 207.833,90.5 209.167,90.5 210.5,90.5C 210.5,89.1667 210.5,87.8333 210.5,86.5C 211.833,86.5 213.167,86.5 214.5,86.5C 214.5,85.1667 214.5,83.8333 214.5,82.5C 217.5,82.5 220.5,82.5 223.5,82.5 Z"/></g>
<g><path style="opacity:1" fill="#be5030" d="M 223.5,83.5 C 226.167,83.5 228.833,83.5 231.5,83.5C 231.5,84.5 231.5,85.5 231.5,86.5C 229.901,86.2322 228.568,86.5655 227.5,87.5C 227.5,88.8333 227.5,90.1667 227.5,91.5C 226.167,91.5 224.833,91.5 223.5,91.5C 223.5,93.8333 223.5,96.1667 223.5,98.5C 222.167,98.5 220.833,98.5 219.5,98.5C 219.5,101.5 219.5,104.5 219.5,107.5C 218.167,107.5 216.833,107.5 215.5,107.5C 215.5,108.833 215.5,110.167 215.5,111.5C 210.167,111.5 204.833,111.5 199.5,111.5C 199.5,110.167 199.5,108.833 199.5,107.5C 200.833,107.5 202.167,107.5 203.5,107.5C 203.5,104.833 203.5,102.167 203.5,99.5C 204.833,99.5 206.167,99.5 207.5,99.5C 207.5,96.8333 207.5,94.1667 207.5,91.5C 209.099,91.7678 210.432,91.4345 211.5,90.5C 216.5,90.5 221.5,90.5 226.5,90.5C 226.5,89.5 226.5,88.5 226.5,87.5C 222.833,87.5 219.167,87.5 215.5,87.5C 215.5,86.1667 215.5,84.8333 215.5,83.5C 218.167,83.5 220.833,83.5 223.5,83.5 Z"/></g>
<g><path style="opacity:1" fill="#742226" d="M 215.5,87.5 C 219.167,87.5 222.833,87.5 226.5,87.5C 226.5,88.5 226.5,89.5 226.5,90.5C 221.5,90.5 216.5,90.5 211.5,90.5C 211.5,89.5 211.5,88.5 211.5,87.5C 212.833,87.5 214.167,87.5 215.5,87.5 Z"/></g>
<g><path style="opacity:1" fill="#ffb429" d="M 288.5,90.5 C 288.5,90.8333 288.5,91.1667 288.5,91.5C 287.167,91.5 285.833,91.5 284.5,91.5C 284.5,94.1667 284.5,96.8333 284.5,99.5C 283.549,98.0813 283.216,96.4147 283.5,94.5C 282.5,94.5 281.5,94.5 280.5,94.5C 280.5,92.1667 280.5,89.8333 280.5,87.5C 282.833,87.5 285.167,87.5 287.5,87.5C 287.263,88.791 287.596,89.791 288.5,90.5 Z"/></g>
<g><path style="opacity:1" fill="#fbd458" d="M 227.5,87.5 C 228.833,87.5 230.167,87.5 231.5,87.5C 231.5,88.8333 231.5,90.1667 231.5,91.5C 230.167,91.5 228.833,91.5 227.5,91.5C 227.5,90.1667 227.5,88.8333 227.5,87.5 Z"/></g>
<g><path style="opacity:0.995" fill="#7d4812" d="M 280.5,82.5 C 283.167,82.5 285.833,82.5 288.5,82.5C 288.5,83.8333 288.5,85.1667 288.5,86.5C 287.596,85.791 287.263,84.791 287.5,83.5C 284.941,83.8016 282.607,83.4682 280.5,82.5 Z"/></g>
<g><path style="opacity:1" fill="#9a5f17" d="M 247.5,74.5 C 255.833,74.5 264.167,74.5 272.5,74.5C 272.5,75.8333 272.5,77.1667 272.5,78.5C 275.167,78.5 277.833,78.5 280.5,78.5C 280.5,79.8333 280.5,81.1667 280.5,82.5C 279.596,81.791 279.263,80.791 279.5,79.5C 276.833,79.5 274.167,79.5 271.5,79.5C 271.5,78.1667 271.5,76.8333 271.5,75.5C 263.833,75.5 256.167,75.5 248.5,75.5C 248.737,76.791 248.404,77.791 247.5,78.5C 247.5,77.1667 247.5,75.8333 247.5,74.5 Z"/></g>
<g><path style="opacity:1" fill="#fc9224" d="M 280.5,82.5 C 282.607,83.4682 284.941,83.8016 287.5,83.5C 287.263,84.791 287.596,85.791 288.5,86.5C 289.209,87.404 290.209,87.7373 291.5,87.5C 291.5,88.5 291.5,89.5 291.5,90.5C 290.5,90.5 289.5,90.5 288.5,90.5C 287.596,89.791 287.263,88.791 287.5,87.5C 285.167,87.5 282.833,87.5 280.5,87.5C 280.5,89.8333 280.5,92.1667 280.5,94.5C 281.5,94.5 282.5,94.5 283.5,94.5C 283.216,96.4147 283.549,98.0813 284.5,99.5C 285.5,99.5 286.5,99.5 287.5,99.5C 287.5,100.833 287.5,102.167 287.5,103.5C 290.5,103.5 293.5,103.5 296.5,103.5C 296.5,102.167 296.5,100.833 296.5,99.5C 297.833,99.5 299.167,99.5 300.5,99.5C 300.5,102.167 300.5,104.833 300.5,107.5C 301.5,107.5 302.5,107.5 303.5,107.5C 303.5,115.167 303.5,122.833 303.5,130.5C 302.209,130.263 301.209,130.596 300.5,131.5C 300.5,134.167 300.5,136.833 300.5,139.5C 299.167,139.5 297.833,139.5 296.5,139.5C 296.5,142.167 296.5,144.833 296.5,147.5C 295.167,147.5 293.833,147.5 292.5,147.5C 292.5,148.833 292.5,150.167 292.5,151.5C 291.167,151.5 289.833,151.5 288.5,151.5C 288.5,152.833 288.5,154.167 288.5,155.5C 285.5,155.5 282.5,155.5 279.5,155.5C 279.5,156.833 279.5,158.167 279.5,159.5C 276.941,159.198 274.607,159.532 272.5,160.5C 271.596,161.209 271.263,162.209 271.5,163.5C 263.5,163.5 255.5,163.5 247.5,163.5C 247.5,162.5 247.5,161.5 247.5,160.5C 244.833,160.5 242.167,160.5 239.5,160.5C 239.5,158.833 239.5,157.167 239.5,155.5C 236.833,155.5 234.167,155.5 231.5,155.5C 231.5,154.167 231.5,152.833 231.5,151.5C 230.167,151.5 228.833,151.5 227.5,151.5C 227.5,150.167 227.5,148.833 227.5,147.5C 226.167,147.5 224.833,147.5 223.5,147.5C 223.5,144.833 223.5,142.167 223.5,139.5C 223.5,136.833 223.5,134.167 223.5,131.5C 222.167,131.5 220.833,131.5 219.5,131.5C 218.167,131.5 216.833,131.5 215.5,131.5C 215.5,130.167 215.5,128.833 215.5,127.5C 216.833,127.5 218.167,127.5 219.5,127.5C 219.5,123.5 219.5,119.5 219.5,115.5C 219.5,112.833 219.5,110.167 219.5,107.5C 220.833,107.5 222.167,107.5 223.5,107.5C 223.5,104.833 223.5,102.167 223.5,99.5C 224.833,99.5 226.167,99.5 227.5,99.5C 227.5,96.8333 227.5,94.1667 227.5,91.5C 228.833,91.5 230.167,91.5 231.5,91.5C 231.5,90.1667 231.5,88.8333 231.5,87.5C 230.167,87.5 228.833,87.5 227.5,87.5C 228.568,86.5655 229.901,86.2322 231.5,86.5C 231.5,85.5 231.5,84.5 231.5,83.5C 233.948,82.5269 236.615,82.1936 239.5,82.5C 239.5,81.1667 239.5,79.8333 239.5,78.5C 242.167,78.5 244.833,78.5 247.5,78.5C 248.404,77.791 248.737,76.791 248.5,75.5C 256.167,75.5 263.833,75.5 271.5,75.5C 271.5,76.8333 271.5,78.1667 271.5,79.5C 274.167,79.5 276.833,79.5 279.5,79.5C 279.263,80.791 279.596,81.791 280.5,82.5 Z"/></g>
<g><path style="opacity:1" fill="#d76f27" d="M 275.5,139.5 C 275.833,139.5 276.167,139.5 276.5,139.5C 276.5,141.167 276.5,142.833 276.5,144.5C 273.833,144.5 271.167,144.5 268.5,144.5C 268.5,147.167 268.5,149.833 268.5,152.5C 265.5,152.5 262.5,152.5 259.5,152.5C 259.5,149.833 259.5,147.167 259.5,144.5C 252.646,144.824 245.979,144.491 239.5,143.5C 246.5,143.5 253.5,143.5 260.5,143.5C 260.5,146.167 260.5,148.833 260.5,151.5C 261.833,151.5 263.167,151.5 264.5,151.5C 265.5,151.5 266.5,151.5 267.5,151.5C 267.5,149.167 267.5,146.833 267.5,144.5C 269.948,143.527 272.615,143.194 275.5,143.5C 275.5,142.167 275.5,140.833 275.5,139.5 Z"/></g>
<g><path style="opacity:1" fill="#772327" d="M 267.5,144.5 C 267.5,146.833 267.5,149.167 267.5,151.5C 266.5,151.5 265.5,151.5 264.5,151.5C 264.5,149.167 264.5,146.833 264.5,144.5C 265.5,144.5 266.5,144.5 267.5,144.5 Z"/></g>
<g><path style="opacity:1" fill="#913728" d="M 275.5,99.5 C 277.167,99.5 278.833,99.5 280.5,99.5C 280.5,100.5 280.5,101.5 280.5,102.5C 281.833,102.5 283.167,102.5 284.5,102.5C 284.5,106.833 284.5,111.167 284.5,115.5C 283.167,115.5 281.833,115.5 280.5,115.5C 280.5,118.167 280.5,120.833 280.5,123.5C 281.833,123.5 283.167,123.5 284.5,123.5C 284.5,127.5 284.5,131.5 284.5,135.5C 283.167,135.5 281.833,135.5 280.5,135.5C 280.5,136.833 280.5,138.167 280.5,139.5C 279.167,139.5 277.833,139.5 276.5,139.5C 276.167,139.5 275.833,139.5 275.5,139.5C 275.5,138.167 275.5,136.833 275.5,135.5C 276.833,135.5 278.167,135.5 279.5,135.5C 279.5,131.5 279.5,127.5 279.5,123.5C 278.167,123.5 276.833,123.5 275.5,123.5C 275.5,120.833 275.5,118.167 275.5,115.5C 276.833,115.5 278.167,115.5 279.5,115.5C 279.5,111.5 279.5,107.5 279.5,103.5C 278.167,103.5 276.833,103.5 275.5,103.5C 275.5,102.167 275.5,100.833 275.5,99.5 Z"/></g>
<g><path style="opacity:1" fill="#772327" d="M 280.5,103.5 C 281.5,103.5 282.5,103.5 283.5,103.5C 283.5,107.167 283.5,110.833 283.5,114.5C 282.5,114.5 281.5,114.5 280.5,114.5C 280.5,110.833 280.5,107.167 280.5,103.5 Z"/></g>
<g><path style="opacity:1" fill="#d56b28" d="M 280.5,99.5 C 278.833,99.5 277.167,99.5 275.5,99.5C 275.5,98.1667 275.5,96.8333 275.5,95.5C 272.615,95.8064 269.948,95.4731 267.5,94.5C 267.5,92.1667 267.5,89.8333 267.5,87.5C 266.5,87.5 265.5,87.5 264.5,87.5C 263.167,87.5 261.833,87.5 260.5,87.5C 260.5,90.1667 260.5,92.8333 260.5,95.5C 253.833,95.5 247.167,95.5 240.5,95.5C 240.5,97.8333 240.5,100.167 240.5,102.5C 241.791,102.263 242.791,102.596 243.5,103.5C 242.167,103.5 240.833,103.5 239.5,103.5C 239.5,100.5 239.5,97.5 239.5,94.5C 246.167,94.5 252.833,94.5 259.5,94.5C 259.5,91.8333 259.5,89.1667 259.5,86.5C 262.5,86.5 265.5,86.5 268.5,86.5C 268.5,89.1667 268.5,91.8333 268.5,94.5C 271.167,94.5 273.833,94.5 276.5,94.5C 276.5,95.8333 276.5,97.1667 276.5,98.5C 278.099,98.2322 279.432,98.5655 280.5,99.5 Z"/></g>
<g><path style="opacity:1" fill="#782427" d="M 264.5,87.5 C 265.5,87.5 266.5,87.5 267.5,87.5C 267.5,89.8333 267.5,92.1667 267.5,94.5C 266.5,94.5 265.5,94.5 264.5,94.5C 264.5,92.1667 264.5,89.8333 264.5,87.5 Z"/></g>
<g><path style="opacity:1" fill="#bf4e2e" d="M 264.5,87.5 C 264.5,89.8333 264.5,92.1667 264.5,94.5C 265.5,94.5 266.5,94.5 267.5,94.5C 269.948,95.4731 272.615,95.8064 275.5,95.5C 275.5,96.8333 275.5,98.1667 275.5,99.5C 275.5,100.833 275.5,102.167 275.5,103.5C 276.833,103.5 278.167,103.5 279.5,103.5C 279.5,107.5 279.5,111.5 279.5,115.5C 278.167,115.5 276.833,115.5 275.5,115.5C 275.5,118.167 275.5,120.833 275.5,123.5C 276.833,123.5 278.167,123.5 279.5,123.5C 279.5,127.5 279.5,131.5 279.5,135.5C 278.167,135.5 276.833,135.5 275.5,135.5C 275.5,136.833 275.5,138.167 275.5,139.5C 275.5,140.833 275.5,142.167 275.5,143.5C 272.615,143.194 269.948,143.527 267.5,144.5C 266.5,144.5 265.5,144.5 264.5,144.5C 264.5,146.833 264.5,149.167 264.5,151.5C 263.167,151.5 261.833,151.5 260.5,151.5C 260.5,148.833 260.5,146.167 260.5,143.5C 253.5,143.5 246.5,143.5 239.5,143.5C 239.5,140.833 239.5,138.167 239.5,135.5C 240.833,135.5 242.167,135.5 243.5,135.5C 243.5,124.833 243.5,114.167 243.5,103.5C 242.791,102.596 241.791,102.263 240.5,102.5C 240.5,100.167 240.5,97.8333 240.5,95.5C 247.167,95.5 253.833,95.5 260.5,95.5C 260.5,92.8333 260.5,90.1667 260.5,87.5C 261.833,87.5 263.167,87.5 264.5,87.5 Z"/></g>
<g><path style="opacity:1" fill="#7a2527" d="M 251.5,123.5 C 252.833,123.5 254.167,123.5 255.5,123.5C 255.5,127.5 255.5,131.5 255.5,135.5C 254.167,135.5 252.833,135.5 251.5,135.5C 251.5,131.5 251.5,127.5 251.5,123.5 Z"/></g>
<g><path style="opacity:1" fill="#fc9024" d="M 256.5,123.5 C 260.5,123.5 264.5,123.5 268.5,123.5C 268.5,124.833 268.5,126.167 268.5,127.5C 269.5,127.5 270.5,127.5 271.5,127.5C 271.5,128.833 271.5,130.167 271.5,131.5C 270.167,131.5 268.833,131.5 267.5,131.5C 267.5,132.833 267.5,134.167 267.5,135.5C 263.833,135.5 260.167,135.5 256.5,135.5C 256.5,131.5 256.5,127.5 256.5,123.5 Z"/></g>
<g><path style="opacity:1" fill="#fb8f24" d="M 271.5,107.5 C 272.434,108.568 272.768,109.901 272.5,111.5C 271.167,111.5 269.833,111.5 268.5,111.5C 268.5,112.833 268.5,114.167 268.5,115.5C 264.5,115.5 260.5,115.5 256.5,115.5C 256.5,111.5 256.5,107.5 256.5,103.5C 260.167,103.5 263.833,103.5 267.5,103.5C 267.5,104.833 267.5,106.167 267.5,107.5C 268.833,107.5 270.167,107.5 271.5,107.5 Z"/></g>
<g><path style="opacity:1" fill="#7f2827" d="M 255.5,102.5 C 255.5,106.833 255.5,111.167 255.5,115.5C 254.167,115.5 252.833,115.5 251.5,115.5C 251.5,111.167 251.5,106.833 251.5,102.5C 252.833,102.5 254.167,102.5 255.5,102.5 Z"/></g>
<g><path style="opacity:1" fill="#d66b28" d="M 255.5,102.5 C 259.833,102.5 264.167,102.5 268.5,102.5C 268.5,103.833 268.5,105.167 268.5,106.5C 269.791,106.263 270.791,106.596 271.5,107.5C 270.167,107.5 268.833,107.5 267.5,107.5C 267.5,106.167 267.5,104.833 267.5,103.5C 263.833,103.5 260.167,103.5 256.5,103.5C 256.5,107.5 256.5,111.5 256.5,115.5C 256.167,115.5 255.833,115.5 255.5,115.5C 255.5,111.167 255.5,106.833 255.5,102.5 Z"/></g>
<g><path style="opacity:1" fill="#732425" d="M 247.5,74.5 C 247.5,75.8333 247.5,77.1667 247.5,78.5C 244.833,78.5 242.167,78.5 239.5,78.5C 239.5,79.8333 239.5,81.1667 239.5,82.5C 236.615,82.1936 233.948,82.5269 231.5,83.5C 228.833,83.5 226.167,83.5 223.5,83.5C 223.5,83.1667 223.5,82.8333 223.5,82.5C 223.5,81.1667 223.5,79.8333 223.5,78.5C 226.167,78.5 228.833,78.5 231.5,78.5C 231.5,77.1667 231.5,75.8333 231.5,74.5C 236.833,74.5 242.167,74.5 247.5,74.5 Z"/></g>
<g><path style="opacity:0.998" fill="#bb4d2d" d="M 223.5,147.5 C 224.833,147.5 226.167,147.5 227.5,147.5C 227.5,148.833 227.5,150.167 227.5,151.5C 228.833,151.5 230.167,151.5 231.5,151.5C 231.5,152.833 231.5,154.167 231.5,155.5C 226.167,155.5 220.833,155.5 215.5,155.5C 215.5,154.167 215.5,152.833 215.5,151.5C 219.167,151.5 222.833,151.5 226.5,151.5C 226.5,150.5 226.5,149.5 226.5,148.5C 225.209,148.737 224.209,148.404 223.5,147.5 Z"/></g>
<g><path style="opacity:1" fill="#732524" d="M 207.5,147.5 C 212.833,147.5 218.167,147.5 223.5,147.5C 224.209,148.404 225.209,148.737 226.5,148.5C 226.5,149.5 226.5,150.5 226.5,151.5C 222.833,151.5 219.167,151.5 215.5,151.5C 215.5,152.833 215.5,154.167 215.5,155.5C 220.833,155.5 226.167,155.5 231.5,155.5C 234.167,155.5 236.833,155.5 239.5,155.5C 239.5,157.167 239.5,158.833 239.5,160.5C 242.167,160.5 244.833,160.5 247.5,160.5C 247.5,161.5 247.5,162.5 247.5,163.5C 247.5,163.833 247.5,164.167 247.5,164.5C 242.167,164.5 236.833,164.5 231.5,164.5C 231.5,162.833 231.5,161.167 231.5,159.5C 228.833,159.5 226.167,159.5 223.5,159.5C 223.5,158.5 223.5,157.5 223.5,156.5C 220.5,156.5 217.5,156.5 214.5,156.5C 214.5,155.167 214.5,153.833 214.5,152.5C 213.5,152.5 212.5,152.5 211.5,152.5C 211.5,151.167 211.5,149.833 211.5,148.5C 209.901,148.768 208.568,148.434 207.5,147.5 Z"/></g>
<g><path style="opacity:0.999" fill="#6f4310" d="M 288.5,155.5 C 286.052,156.473 283.385,156.806 280.5,156.5C 280.5,157.833 280.5,159.167 280.5,160.5C 277.833,160.5 275.167,160.5 272.5,160.5C 274.607,159.532 276.941,159.198 279.5,159.5C 279.5,158.167 279.5,156.833 279.5,155.5C 282.5,155.5 285.5,155.5 288.5,155.5 Z"/></g>
<g><path style="opacity:0.835" fill="#cccccc" d="M 347.5,160.5 C 352.456,161.828 357.789,162.495 363.5,162.5C 369.41,162.452 375.076,161.786 380.5,160.5C 380.5,161.5 380.5,162.5 380.5,163.5C 369.167,163.5 357.833,163.5 346.5,163.5C 346.263,162.209 346.596,161.209 347.5,160.5 Z"/></g>
<g><path style="opacity:0.999" fill="#835013" d="M 272.5,160.5 C 272.5,161.833 272.5,163.167 272.5,164.5C 264.167,164.5 255.833,164.5 247.5,164.5C 247.5,164.167 247.5,163.833 247.5,163.5C 255.5,163.5 263.5,163.5 271.5,163.5C 271.263,162.209 271.596,161.209 272.5,160.5 Z"/></g>
<g><path style="opacity:1" fill="#e5528f" d="M 227.5,180.5 C 228.833,180.5 230.167,180.5 231.5,180.5C 231.5,181.833 231.5,183.167 231.5,184.5C 230.167,184.5 228.833,184.5 227.5,184.5C 227.5,183.167 227.5,181.833 227.5,180.5 Z"/></g>
<g><path style="opacity:1" fill="#81366d" d="M 231.5,180.5 C 245.167,180.5 258.833,180.5 272.5,180.5C 272.5,181.833 272.5,183.167 272.5,184.5C 272.5,184.833 272.5,185.167 272.5,185.5C 271.167,185.5 269.833,185.5 268.5,185.5C 268.5,186.833 268.5,188.167 268.5,189.5C 259.5,189.5 250.5,189.5 241.5,189.5C 240.766,188.292 240.433,186.959 240.5,185.5C 239.167,185.5 237.833,185.5 236.5,185.5C 235.081,184.549 233.415,184.216 231.5,184.5C 231.5,183.167 231.5,181.833 231.5,180.5 Z"/></g>
<g><path style="opacity:1" fill="#e2508d" d="M 272.5,180.5 C 273.833,180.5 275.167,180.5 276.5,180.5C 276.5,181.833 276.5,183.167 276.5,184.5C 275.167,184.5 273.833,184.5 272.5,184.5C 272.5,183.167 272.5,181.833 272.5,180.5 Z"/></g>
<g><path style="opacity:1" fill="#f0dfeb" d="M 277.5,180.5 C 278.833,180.5 280.167,180.5 281.5,180.5C 281.5,181.833 281.5,183.167 281.5,184.5C 280.167,184.5 278.833,184.5 277.5,184.5C 277.5,183.167 277.5,181.833 277.5,180.5 Z"/></g>
<g><path style="opacity:1" fill="#ef9bc1" d="M 276.5,180.5 C 276.833,180.5 277.167,180.5 277.5,180.5C 277.5,181.833 277.5,183.167 277.5,184.5C 278.833,184.5 280.167,184.5 281.5,184.5C 281.5,184.833 281.5,185.167 281.5,185.5C 280.167,185.5 278.833,185.5 277.5,185.5C 277.5,186.833 277.5,188.167 277.5,189.5C 277.167,189.5 276.833,189.5 276.5,189.5C 276.5,188.167 276.5,186.833 276.5,185.5C 275.167,185.5 273.833,185.5 272.5,185.5C 272.5,185.167 272.5,184.833 272.5,184.5C 273.833,184.5 275.167,184.5 276.5,184.5C 276.5,183.167 276.5,181.833 276.5,180.5 Z"/></g>
<g><path style="opacity:0.992" fill="#fea1e5" d="M 209.5,185.5 C 212.5,185.5 215.5,185.5 218.5,185.5C 219.833,185.5 221.167,185.5 222.5,185.5C 222.5,186.833 222.5,188.167 222.5,189.5C 224.167,189.5 225.833,189.5 227.5,189.5C 227.5,191.167 227.5,192.833 227.5,194.5C 230.5,194.5 233.5,194.5 236.5,194.5C 236.5,195.833 236.5,197.167 236.5,198.5C 248.5,198.5 260.5,198.5 272.5,198.5C 272.5,197.167 272.5,195.833 272.5,194.5C 274.167,194.5 275.833,194.5 277.5,194.5C 277.5,192.833 277.5,191.167 277.5,189.5C 278.833,189.5 280.167,189.5 281.5,189.5C 281.5,188.167 281.5,186.833 281.5,185.5C 283.167,185.5 284.833,185.5 286.5,185.5C 286.5,186.833 286.5,188.167 286.5,189.5C 287.833,189.5 289.167,189.5 290.5,189.5C 290.5,190.833 290.5,192.167 290.5,193.5C 292.167,193.5 293.833,193.5 295.5,193.5C 295.5,193.833 295.5,194.167 295.5,194.5C 295.5,197.167 295.5,199.833 295.5,202.5C 296.833,202.5 298.167,202.5 299.5,202.5C 299.5,202.833 299.5,203.167 299.5,203.5C 298.167,203.5 296.833,203.5 295.5,203.5C 295.5,206.167 295.5,208.833 295.5,211.5C 296.833,211.5 298.167,211.5 299.5,211.5C 299.5,214.5 299.5,217.5 299.5,220.5C 299.5,226.833 299.5,233.167 299.5,239.5C 300.833,239.5 302.167,239.5 303.5,239.5C 303.177,245.69 303.51,251.69 304.5,257.5C 304.5,260.5 304.5,263.5 304.5,266.5C 305.833,266.5 307.167,266.5 308.5,266.5C 308.5,268.5 308.5,270.5 308.5,272.5C 307.167,272.5 305.833,272.5 304.5,272.5C 303.659,270.621 303.325,268.621 303.5,266.5C 302.167,266.5 300.833,266.5 299.5,266.5C 299.5,268.5 299.5,270.5 299.5,272.5C 276.833,272.5 254.167,272.5 231.5,272.5C 231.5,270.5 231.5,268.5 231.5,266.5C 230.167,266.5 228.833,266.5 227.5,266.5C 227.5,264.833 227.5,263.167 227.5,261.5C 226.167,261.5 224.833,261.5 223.5,261.5C 223.667,245.163 223.5,228.83 223,212.5C 221.644,211.62 220.144,211.286 218.5,211.5C 218.5,210.167 218.5,208.833 218.5,207.5C 216.833,207.5 215.167,207.5 213.5,207.5C 213.5,209.167 213.5,210.833 213.5,212.5C 215.167,212.5 216.833,212.5 218.5,212.5C 218.5,218.5 218.5,224.5 218.5,230.5C 218.5,234.833 218.5,239.167 218.5,243.5C 216.833,243.5 215.167,243.5 213.5,243.5C 213.5,245.167 213.5,246.833 213.5,248.5C 213.5,254.5 213.5,260.5 213.5,266.5C 212.167,266.5 210.833,266.5 209.5,266.5C 209.5,268.5 209.5,270.5 209.5,272.5C 203.167,272.5 196.833,272.5 190.5,272.5C 191.369,270.283 191.702,267.95 191.5,265.5C 190.167,265.5 188.833,265.5 187.5,265.5C 187.5,264.167 187.5,262.833 187.5,261.5C 185.833,261.5 184.167,261.5 182.5,261.5C 182.5,252.5 182.5,243.5 182.5,234.5C 182.5,230.167 182.5,225.833 182.5,221.5C 184.167,221.5 185.833,221.5 187.5,221.5C 187.5,216.833 187.5,212.167 187.5,207.5C 188.833,207.5 190.167,207.5 191.5,207.5C 191.5,206.167 191.5,204.833 191.5,203.5C 191.5,201.833 191.5,200.167 191.5,198.5C 193.167,198.5 194.833,198.5 196.5,198.5C 196.5,197.167 196.5,195.833 196.5,194.5C 197.833,194.5 199.167,194.5 200.5,194.5C 200.5,192.833 200.5,191.167 200.5,189.5C 202.167,189.5 203.833,189.5 205.5,189.5C 206.833,189.5 208.167,189.5 209.5,189.5C 209.5,188.167 209.5,186.833 209.5,185.5 Z"/></g>
<g><path style="opacity:1" fill="#e65e98" d="M 236.5,185.5 C 237.833,185.5 239.167,185.5 240.5,185.5C 240.433,186.959 240.766,188.292 241.5,189.5C 239.833,189.5 238.167,189.5 236.5,189.5C 236.5,188.167 236.5,186.833 236.5,185.5 Z"/></g>
<g><path style="opacity:1" fill="#e85c97" d="M 272.5,185.5 C 272.5,186.833 272.5,188.167 272.5,189.5C 271.167,189.5 269.833,189.5 268.5,189.5C 268.5,188.167 268.5,186.833 268.5,185.5C 269.833,185.5 271.167,185.5 272.5,185.5 Z"/></g>
<g><path style="opacity:1" fill="#fcdcef" d="M 272.5,185.5 C 273.833,185.5 275.167,185.5 276.5,185.5C 276.5,186.833 276.5,188.167 276.5,189.5C 275.167,189.5 273.833,189.5 272.5,189.5C 272.5,188.167 272.5,186.833 272.5,185.5 Z"/></g>
<g><path style="opacity:0.996" fill="#763a59" d="M 218.5,184.5 C 218.5,184.833 218.5,185.167 218.5,185.5C 215.5,185.5 212.5,185.5 209.5,185.5C 208.167,185.5 206.833,185.5 205.5,185.5C 205.5,186.833 205.5,188.167 205.5,189.5C 203.833,189.5 202.167,189.5 200.5,189.5C 198.833,189.5 197.167,189.5 195.5,189.5C 195.5,189.167 195.5,188.833 195.5,188.5C 198.5,188.5 201.5,188.5 204.5,188.5C 204.5,187.167 204.5,185.833 204.5,184.5C 209.167,184.5 213.833,184.5 218.5,184.5 Z"/></g>
<g><path style="opacity:1" fill="#e85997" d="M 209.5,185.5 C 209.5,186.833 209.5,188.167 209.5,189.5C 208.167,189.5 206.833,189.5 205.5,189.5C 205.5,188.167 205.5,186.833 205.5,185.5C 206.833,185.5 208.167,185.5 209.5,185.5 Z"/></g>
<g><path style="opacity:1" fill="#e968a2" d="M 223.5,180.5 C 223.5,182.167 223.5,183.833 223.5,185.5C 224.833,185.5 226.167,185.5 227.5,185.5C 227.5,186.833 227.5,188.167 227.5,189.5C 225.833,189.5 224.167,189.5 222.5,189.5C 222.5,188.167 222.5,186.833 222.5,185.5C 221.167,185.5 219.833,185.5 218.5,185.5C 218.5,185.167 218.5,184.833 218.5,184.5C 218.5,183.167 218.5,181.833 218.5,180.5C 220.167,180.5 221.833,180.5 223.5,180.5 Z"/></g>
<g><path style="opacity:1" fill="#e95c9a" d="M 281.5,185.5 C 281.5,186.833 281.5,188.167 281.5,189.5C 280.167,189.5 278.833,189.5 277.5,189.5C 277.5,188.167 277.5,186.833 277.5,185.5C 278.833,185.5 280.167,185.5 281.5,185.5 Z"/></g>
<g><path style="opacity:0.998" fill="#e15490" d="M 286.5,185.5 C 287.833,185.5 289.167,185.5 290.5,185.5C 290.5,186.833 290.5,188.167 290.5,189.5C 290.5,188.167 290.5,186.833 290.5,185.5C 289.167,185.5 287.833,185.5 286.5,185.5 Z"/></g>
<g><path style="opacity:1" fill="#f6cae1" d="M 223.5,180.5 C 224.833,180.5 226.167,180.5 227.5,180.5C 227.5,181.833 227.5,183.167 227.5,184.5C 228.833,184.5 230.167,184.5 231.5,184.5C 233.415,184.216 235.081,184.549 236.5,185.5C 236.5,186.833 236.5,188.167 236.5,189.5C 233.5,189.5 230.5,189.5 227.5,189.5C 227.5,188.167 227.5,186.833 227.5,185.5C 226.167,185.5 224.833,185.5 223.5,185.5C 223.5,183.833 223.5,182.167 223.5,180.5 Z"/></g>
<g><path style="opacity:0.998" fill="#4e2135" d="M 281.5,185.5 C 281.5,185.167 281.5,184.833 281.5,184.5C 284.833,184.5 288.167,184.5 291.5,184.5C 291.5,185.833 291.5,187.167 291.5,188.5C 293.099,188.232 294.432,188.566 295.5,189.5C 293.833,189.5 292.167,189.5 290.5,189.5C 290.5,188.167 290.5,186.833 290.5,185.5C 289.167,185.5 287.833,185.5 286.5,185.5C 284.833,185.5 283.167,185.5 281.5,185.5 Z"/></g>
<g><path style="opacity:1" fill="#ee7aac" d="M 272.5,189.5 C 273.833,189.5 275.167,189.5 276.5,189.5C 276.833,189.5 277.167,189.5 277.5,189.5C 277.5,191.167 277.5,192.833 277.5,194.5C 275.833,194.5 274.167,194.5 272.5,194.5C 260.5,194.5 248.5,194.5 236.5,194.5C 236.5,194.167 236.5,193.833 236.5,193.5C 248.5,193.5 260.5,193.5 272.5,193.5C 272.5,192.167 272.5,190.833 272.5,189.5 Z"/></g>
<g><path style="opacity:1" fill="#e95e9a" d="M 227.5,189.5 C 230.5,189.5 233.5,189.5 236.5,189.5C 236.5,190.833 236.5,192.167 236.5,193.5C 236.5,193.833 236.5,194.167 236.5,194.5C 233.5,194.5 230.5,194.5 227.5,194.5C 227.5,192.833 227.5,191.167 227.5,189.5 Z"/></g>
<g><path style="opacity:1" fill="#fae1f2" d="M 236.5,189.5 C 238.167,189.5 239.833,189.5 241.5,189.5C 250.5,189.5 259.5,189.5 268.5,189.5C 269.833,189.5 271.167,189.5 272.5,189.5C 272.5,190.833 272.5,192.167 272.5,193.5C 260.5,193.5 248.5,193.5 236.5,193.5C 236.5,192.167 236.5,190.833 236.5,189.5 Z"/></g>
<g><path style="opacity:1" fill="#d54e87" d="M 290.5,189.5 C 292.167,189.5 293.833,189.5 295.5,189.5C 295.5,190.833 295.5,192.167 295.5,193.5C 293.833,193.5 292.167,193.5 290.5,193.5C 290.5,192.167 290.5,190.833 290.5,189.5 Z"/></g>
<g><path style="opacity:1" fill="#e35a97" d="M 195.5,189.5 C 197.167,189.5 198.833,189.5 200.5,189.5C 200.5,191.167 200.5,192.833 200.5,194.5C 199.167,194.5 197.833,194.5 196.5,194.5C 196.5,195.833 196.5,197.167 196.5,198.5C 194.833,198.5 193.167,198.5 191.5,198.5C 191.5,197.167 191.5,195.833 191.5,194.5C 193.099,194.768 194.432,194.434 195.5,193.5C 195.5,192.167 195.5,190.833 195.5,189.5 Z"/></g>
<g><path style="opacity:1" fill="#e75492" d="M 236.5,194.5 C 248.5,194.5 260.5,194.5 272.5,194.5C 272.5,195.833 272.5,197.167 272.5,198.5C 260.5,198.5 248.5,198.5 236.5,198.5C 236.5,197.167 236.5,195.833 236.5,194.5 Z"/></g>
<g><path style="opacity:1" fill="#e2518e" d="M 295.5,194.5 C 296.833,194.5 298.167,194.5 299.5,194.5C 299.5,197.167 299.5,199.833 299.5,202.5C 298.167,202.5 296.833,202.5 295.5,202.5C 295.5,199.833 295.5,197.167 295.5,194.5 Z"/></g>
<g><path style="opacity:0.999" fill="#561f36" d="M 295.5,194.5 C 295.5,194.167 295.5,193.833 295.5,193.5C 297.167,193.5 298.833,193.5 300.5,193.5C 300.5,196.5 300.5,199.5 300.5,202.5C 302.099,202.232 303.432,202.566 304.5,203.5C 302.833,203.5 301.167,203.5 299.5,203.5C 299.5,203.167 299.5,202.833 299.5,202.5C 299.5,199.833 299.5,197.167 299.5,194.5C 298.167,194.5 296.833,194.5 295.5,194.5 Z"/></g>
<g><path style="opacity:1" fill="#fee6f7" d="M 290.5,198.5 C 291.833,198.5 293.167,198.5 294.5,198.5C 294.5,199.833 294.5,201.167 294.5,202.5C 293.167,202.5 291.833,202.5 290.5,202.5C 290.5,201.167 290.5,199.833 290.5,198.5 Z"/></g>
<g><path style="opacity:0.704" fill="#0c0608" d="M 195.5,188.5 C 195.5,188.833 195.5,189.167 195.5,189.5C 195.5,190.833 195.5,192.167 195.5,193.5C 193.833,193.5 192.167,193.5 190.5,193.5C 190.5,196.5 190.5,199.5 190.5,202.5C 189.167,202.5 187.833,202.5 186.5,202.5C 186.5,204.167 186.5,205.833 186.5,207.5C 186.5,210.5 186.5,213.5 186.5,216.5C 185.167,216.5 183.833,216.5 182.5,216.5C 182.5,218.167 182.5,219.833 182.5,221.5C 182.5,225.833 182.5,230.167 182.5,234.5C 180.833,234.5 179.167,234.5 177.5,234.5C 177.5,242.167 177.5,249.833 177.5,257.5C 176.167,257.5 174.833,257.5 173.5,257.5C 173.5,260.5 173.5,263.5 173.5,266.5C 173.5,268.5 173.5,270.5 173.5,272.5C 171.738,272.643 170.071,272.309 168.5,271.5C 167.506,266.544 167.173,261.544 167.5,256.5C 169.167,256.5 170.833,256.5 172.5,256.5C 172.5,248.833 172.5,241.167 172.5,233.5C 173.833,233.5 175.167,233.5 176.5,233.5C 176.334,227.824 176.501,222.157 177,216.5C 178.011,215.663 179.178,215.33 180.5,215.5C 180.5,211.167 180.5,206.833 180.5,202.5C 182.167,202.5 183.833,202.5 185.5,202.5C 185.5,199.167 185.5,195.833 185.5,192.5C 187.167,192.5 188.833,192.5 190.5,192.5C 190.5,191.167 190.5,189.833 190.5,188.5C 192.167,188.5 193.833,188.5 195.5,188.5 Z"/></g>
<g><path style="opacity:0.975" fill="#742d4c" d="M 195.5,193.5 C 194.432,194.434 193.099,194.768 191.5,194.5C 191.5,195.833 191.5,197.167 191.5,198.5C 191.5,200.167 191.5,201.833 191.5,203.5C 190.167,203.5 188.833,203.5 187.5,203.5C 187.5,204.833 187.5,206.167 187.5,207.5C 187.167,207.5 186.833,207.5 186.5,207.5C 186.5,205.833 186.5,204.167 186.5,202.5C 187.833,202.5 189.167,202.5 190.5,202.5C 190.5,199.5 190.5,196.5 190.5,193.5C 192.167,193.5 193.833,193.5 195.5,193.5 Z"/></g>
<g><path style="opacity:1" fill="#e75896" d="M 191.5,203.5 C 191.5,204.833 191.5,206.167 191.5,207.5C 190.167,207.5 188.833,207.5 187.5,207.5C 187.5,206.167 187.5,204.833 187.5,203.5C 188.833,203.5 190.167,203.5 191.5,203.5 Z"/></g>
<g><path style="opacity:1" fill="#fde2f3" d="M 299.5,203.5 C 299.5,206.167 299.5,208.833 299.5,211.5C 298.167,211.5 296.833,211.5 295.5,211.5C 295.5,208.833 295.5,206.167 295.5,203.5C 296.833,203.5 298.167,203.5 299.5,203.5 Z"/></g>
<g><path style="opacity:0.99" fill="#42172a" d="M 304.5,211.5 C 306.167,211.5 307.833,211.5 309.5,211.5C 309.5,214.5 309.5,217.5 309.5,220.5C 311.099,220.232 312.432,220.566 313.5,221.5C 311.833,221.5 310.167,221.5 308.5,221.5C 308.5,218.5 308.5,215.5 308.5,212.5C 306.901,212.768 305.568,212.434 304.5,211.5 Z"/></g>
<g><path style="opacity:1" fill="#dc6ba5" d="M 186.5,207.5 C 186.833,207.5 187.167,207.5 187.5,207.5C 187.5,212.167 187.5,216.833 187.5,221.5C 185.833,221.5 184.167,221.5 182.5,221.5C 182.5,219.833 182.5,218.167 182.5,216.5C 183.833,216.5 185.167,216.5 186.5,216.5C 186.5,213.5 186.5,210.5 186.5,207.5 Z"/></g>
<g><path style="opacity:0.653" fill="#020001" d="M 291.5,184.5 C 293.167,184.5 294.833,184.5 296.5,184.5C 296.5,185.833 296.5,187.167 296.5,188.5C 297.833,188.5 299.167,188.5 300.5,188.5C 300.5,189.833 300.5,191.167 300.5,192.5C 302.144,192.286 303.644,192.62 305,193.5C 305.498,196.482 305.665,199.482 305.5,202.5C 306.833,202.5 308.167,202.5 309.5,202.5C 309.5,205.167 309.5,207.833 309.5,210.5C 311.144,210.286 312.644,210.62 314,211.5C 314.498,214.482 314.665,217.482 314.5,220.5C 316.167,220.5 317.833,220.5 319.5,220.5C 319.5,224.833 319.5,229.167 319.5,233.5C 320.833,233.5 322.167,233.5 323.5,233.5C 323.5,241.167 323.5,248.833 323.5,256.5C 325.144,256.286 326.644,256.62 328,257.5C 328.667,261.833 328.667,266.167 328,270.5C 326.556,272.155 324.722,272.822 322.5,272.5C 322.5,267.5 322.5,262.5 322.5,257.5C 321.432,256.566 320.099,256.232 318.5,256.5C 318.825,248.981 318.492,241.648 317.5,234.5C 316.167,234.5 314.833,234.5 313.5,234.5C 313.5,230.167 313.5,225.833 313.5,221.5C 312.432,220.566 311.099,220.232 309.5,220.5C 309.5,217.5 309.5,214.5 309.5,211.5C 307.833,211.5 306.167,211.5 304.5,211.5C 304.5,208.833 304.5,206.167 304.5,203.5C 303.432,202.566 302.099,202.232 300.5,202.5C 300.5,199.5 300.5,196.5 300.5,193.5C 298.833,193.5 297.167,193.5 295.5,193.5C 295.5,192.167 295.5,190.833 295.5,189.5C 294.432,188.566 293.099,188.232 291.5,188.5C 291.5,187.167 291.5,185.833 291.5,184.5 Z"/></g>
<g><path style="opacity:1" fill="#b2538a" d="M 299.5,220.5 C 301.167,220.5 302.833,220.5 304.5,220.5C 304.5,225.167 304.5,229.833 304.5,234.5C 304.5,242.167 304.5,249.833 304.5,257.5C 303.51,251.69 303.177,245.69 303.5,239.5C 302.167,239.5 300.833,239.5 299.5,239.5C 299.5,233.167 299.5,226.833 299.5,220.5 Z"/></g>
<g><path style="opacity:1" fill="#7b316a" d="M 300.5,221.5 C 301.5,221.5 302.5,221.5 303.5,221.5C 303.5,225.833 303.5,230.167 303.5,234.5C 302.5,234.5 301.5,234.5 300.5,234.5C 300.5,230.167 300.5,225.833 300.5,221.5 Z"/></g>
<g><path style="opacity:1" fill="#80346d" d="M 218.5,230.5 C 219.833,230.5 221.167,230.5 222.5,230.5C 222.5,236.5 222.5,242.5 222.5,248.5C 221.167,248.5 219.833,248.5 218.5,248.5C 217.167,248.5 215.833,248.5 214.5,248.5C 215.568,247.566 216.901,247.232 218.5,247.5C 218.5,246.167 218.5,244.833 218.5,243.5C 218.5,239.167 218.5,234.833 218.5,230.5 Z"/></g>
<g><path style="opacity:1" fill="#e2518e" d="M 299.5,203.5 C 301.167,203.5 302.833,203.5 304.5,203.5C 304.5,206.167 304.5,208.833 304.5,211.5C 305.568,212.434 306.901,212.768 308.5,212.5C 308.5,215.5 308.5,218.5 308.5,221.5C 310.167,221.5 311.833,221.5 313.5,221.5C 313.5,225.833 313.5,230.167 313.5,234.5C 314.833,234.5 316.167,234.5 317.5,234.5C 317.5,242.167 317.5,249.833 317.5,257.5C 319.167,257.5 320.833,257.5 322.5,257.5C 322.5,262.5 322.5,267.5 322.5,272.5C 319.5,272.5 316.5,272.5 313.5,272.5C 313.5,267.5 313.5,262.5 313.5,257.5C 311.833,257.5 310.167,257.5 308.5,257.5C 308.5,249.833 308.5,242.167 308.5,234.5C 307.167,234.5 305.833,234.5 304.5,234.5C 304.5,229.833 304.5,225.167 304.5,220.5C 302.833,220.5 301.167,220.5 299.5,220.5C 299.5,217.5 299.5,214.5 299.5,211.5C 299.5,208.833 299.5,206.167 299.5,203.5 Z"/></g>
<g><path style="opacity:1" fill="#dd538e" d="M 182.5,234.5 C 182.5,243.5 182.5,252.5 182.5,261.5C 180.833,261.5 179.167,261.5 177.5,261.5C 177.5,263.167 177.5,264.833 177.5,266.5C 176.167,266.5 174.833,266.5 173.5,266.5C 173.5,263.5 173.5,260.5 173.5,257.5C 174.833,257.5 176.167,257.5 177.5,257.5C 177.5,249.833 177.5,242.167 177.5,234.5C 179.167,234.5 180.833,234.5 182.5,234.5 Z"/></g>
<g><path style="opacity:0.999" fill="#48192d" d="M 317.5,234.5 C 318.492,241.648 318.825,248.981 318.5,256.5C 320.099,256.232 321.432,256.566 322.5,257.5C 320.833,257.5 319.167,257.5 317.5,257.5C 317.5,249.833 317.5,242.167 317.5,234.5 Z"/></g>
<g><path style="opacity:1" fill="#0e0509" d="M 304.5,234.5 C 305.833,234.5 307.167,234.5 308.5,234.5C 308.5,242.167 308.5,249.833 308.5,257.5C 307.167,257.5 305.833,257.5 304.5,257.5C 304.5,249.833 304.5,242.167 304.5,234.5 Z"/></g>
<g><path style="opacity:1" fill="#e45b98" d="M 218.5,243.5 C 218.5,244.833 218.5,246.167 218.5,247.5C 216.901,247.232 215.568,247.566 214.5,248.5C 214.167,248.5 213.833,248.5 213.5,248.5C 213.5,246.833 213.5,245.167 213.5,243.5C 215.167,243.5 216.833,243.5 218.5,243.5 Z"/></g>
<g><path style="opacity:1" fill="#e1528e" d="M 218.5,248.5 C 219.833,248.5 221.167,248.5 222.5,248.5C 222.5,254.5 222.5,260.5 222.5,266.5C 221.167,266.5 219.833,266.5 218.5,266.5C 218.5,260.5 218.5,254.5 218.5,248.5 Z"/></g>
<g><path style="opacity:0.924" fill="#21141b" d="M 213.5,248.5 C 213.833,248.5 214.167,248.5 214.5,248.5C 215.833,248.5 217.167,248.5 218.5,248.5C 218.5,254.5 218.5,260.5 218.5,266.5C 218.5,268.5 218.5,270.5 218.5,272.5C 216.833,272.5 215.167,272.5 213.5,272.5C 213.5,270.5 213.5,268.5 213.5,266.5C 213.5,260.5 213.5,254.5 213.5,248.5 Z"/></g>
<g><path style="opacity:1" fill="#e870af" d="M 223.5,261.5 C 223.5,263.167 223.5,264.833 223.5,266.5C 224.833,266.5 226.167,266.5 227.5,266.5C 227.5,268.5 227.5,270.5 227.5,272.5C 224.5,272.5 221.5,272.5 218.5,272.5C 218.5,270.5 218.5,268.5 218.5,266.5C 219.833,266.5 221.167,266.5 222.5,266.5C 222.5,260.5 222.5,254.5 222.5,248.5C 222.5,242.5 222.5,236.5 222.5,230.5C 221.167,230.5 219.833,230.5 218.5,230.5C 218.5,224.5 218.5,218.5 218.5,212.5C 216.833,212.5 215.167,212.5 213.5,212.5C 213.5,210.833 213.5,209.167 213.5,207.5C 215.167,207.5 216.833,207.5 218.5,207.5C 218.5,208.833 218.5,210.167 218.5,211.5C 220.144,211.286 221.644,211.62 223,212.5C 223.5,228.83 223.667,245.163 223.5,261.5 Z"/></g>
<g><path style="opacity:1" fill="#e45491" d="M 304.5,257.5 C 305.833,257.5 307.167,257.5 308.5,257.5C 308.5,260.5 308.5,263.5 308.5,266.5C 307.167,266.5 305.833,266.5 304.5,266.5C 304.5,263.5 304.5,260.5 304.5,257.5 Z"/></g>
<g><path style="opacity:0.855" fill="#1a0c12" d="M 308.5,257.5 C 310.167,257.5 311.833,257.5 313.5,257.5C 313.5,262.5 313.5,267.5 313.5,272.5C 311.833,272.5 310.167,272.5 308.5,272.5C 308.5,270.5 308.5,268.5 308.5,266.5C 308.5,263.5 308.5,260.5 308.5,257.5 Z"/></g>
<g><path style="opacity:0.989" fill="#8a3775" d="M 182.5,261.5 C 182.5,263.167 182.5,264.833 182.5,266.5C 182.5,268.5 182.5,270.5 182.5,272.5C 180.833,272.5 179.167,272.5 177.5,272.5C 177.5,270.5 177.5,268.5 177.5,266.5C 177.5,264.833 177.5,263.167 177.5,261.5C 179.167,261.5 180.833,261.5 182.5,261.5 Z"/></g>
<g><path style="opacity:1" fill="#fdcdeb" d="M 182.5,261.5 C 184.167,261.5 185.833,261.5 187.5,261.5C 187.5,262.833 187.5,264.167 187.5,265.5C 188.833,265.5 190.167,265.5 191.5,265.5C 191.702,267.95 191.369,270.283 190.5,272.5C 189.167,272.5 187.833,272.5 186.5,272.5C 186.5,270.5 186.5,268.5 186.5,266.5C 185.167,266.5 183.833,266.5 182.5,266.5C 182.5,264.833 182.5,263.167 182.5,261.5 Z"/></g>
<g><path style="opacity:1" fill="#fbcfe8" d="M 223.5,261.5 C 224.833,261.5 226.167,261.5 227.5,261.5C 227.5,263.167 227.5,264.833 227.5,266.5C 226.167,266.5 224.833,266.5 223.5,266.5C 223.5,264.833 223.5,263.167 223.5,261.5 Z"/></g>
<g><path style="opacity:0.813" fill="#f99ae6" d="M 173.5,266.5 C 174.833,266.5 176.167,266.5 177.5,266.5C 177.5,268.5 177.5,270.5 177.5,272.5C 176.167,272.5 174.833,272.5 173.5,272.5C 173.5,270.5 173.5,268.5 173.5,266.5 Z"/></g>
<g><path style="opacity:0.962" fill="#eb4e8f" d="M 182.5,266.5 C 183.833,266.5 185.167,266.5 186.5,266.5C 186.5,268.5 186.5,270.5 186.5,272.5C 185.167,272.5 183.833,272.5 182.5,272.5C 182.5,270.5 182.5,268.5 182.5,266.5 Z"/></g>
<g><path style="opacity:0.977" fill="#ed4e90" d="M 213.5,266.5 C 213.5,268.5 213.5,270.5 213.5,272.5C 212.167,272.5 210.833,272.5 209.5,272.5C 209.5,270.5 209.5,268.5 209.5,266.5C 210.833,266.5 212.167,266.5 213.5,266.5 Z"/></g>
<g><path style="opacity:0.719" fill="#feebf8" d="M 227.5,266.5 C 228.833,266.5 230.167,266.5 231.5,266.5C 231.5,268.5 231.5,270.5 231.5,272.5C 230.167,272.5 228.833,272.5 227.5,272.5C 227.5,270.5 227.5,268.5 227.5,266.5 Z"/></g>
<g><path style="opacity:0.893" fill="#ec5194" d="M 304.5,272.5 C 302.833,272.5 301.167,272.5 299.5,272.5C 299.5,270.5 299.5,268.5 299.5,266.5C 300.833,266.5 302.167,266.5 303.5,266.5C 303.325,268.621 303.659,270.621 304.5,272.5 Z"/></g>
</svg>
